<svg xmlns="http://www.w3.org/2000/svg" fill="none" viewBox="0 0 350 361" height="361" width="350">
<g clip-path="url(#clip0_1362_2)">
<path fill="#264133" d="M116.334 206.071C120.943 197.711 125.996 193.767 130.31 193.322C154.847 190.794 137.596 242.546 97.1525 246.721L94.0298 247.041L116.334 206.071ZM75.2925 254.323L75.2312 254.438C77.9938 255.458 82.6458 256.851 88.3098 257.271L88.3792 257.143C91.2032 257.297 94.0298 257.307 97.1525 256.985C152.171 251.313 178.786 174.941 130.31 179.942C121.836 180.811 111.724 187.806 104.734 200.723L80.6445 244.699C71.5752 240.877 66.8178 232.747 66.8178 224.118C66.8178 216.978 70.0885 209.501 76.7805 203.606L71.7272 195.054C60.7205 204.07 55.8125 215.137 55.8125 225.546C55.8125 237.897 62.8032 249.069 75.2925 254.323Z"></path>
<path fill="#264133" d="M334.242 293.011C206.499 279.826 110.535 345.341 106.515 348.134C103.548 350.194 102.815 354.274 104.872 357.239C106.144 359.071 108.183 360.051 110.254 360.051C111.542 360.051 112.844 359.673 113.978 358.885C114.93 358.23 210.174 293.362 332.896 306.025C336.495 306.415 339.708 303.786 340.078 300.19C340.448 296.593 337.835 293.378 334.242 293.011Z"></path>
<path fill="#264133" d="M215.773 12.5293L162.601 30.7973L197.775 45.7933L215.773 12.5293Z"></path>
<path fill="#264133" d="M61.4112 81.0655C66.0206 72.7095 71.0806 68.7655 75.3886 68.3161C99.9246 65.7895 82.6779 117.544 42.2299 121.715L39.1086 122.035L61.4112 81.0655ZM20.3739 129.321L20.3539 129.357C23.2232 130.401 27.9766 131.784 33.7259 132.148C34.8846 132.207 36.0486 132.236 37.2312 132.232C37.3499 132.229 37.4646 132.235 37.5832 132.232L37.5819 132.233C39.0806 132.217 40.6139 132.141 42.2299 131.975C97.2486 126.307 123.865 49.9348 75.3886 54.9321C66.9139 55.8095 56.8032 62.8001 49.8126 75.7175L25.7259 119.693C16.6552 115.875 11.8966 107.737 11.8966 99.1081C11.8966 91.9735 15.1659 84.4948 21.8579 78.6L16.8046 70.0455C5.79924 79.0601 0.892578 90.1308 0.892578 100.54C0.892578 112.891 7.88324 124.063 20.3739 129.321Z"></path>
<path fill="#264133" d="M106.48 143.945L118.228 122.357L125.661 108.949C136.516 89.3885 151.387 95.1378 142.017 112.174L130.717 132.671L129.972 132.749C124.92 133.271 120.904 137.847 120.904 142.907C120.904 144.838 121.497 146.558 122.388 147.959L122.243 148.271C114.953 161.515 97.2613 160.961 106.48 143.945ZM246.265 68.2565C254.596 52.9712 265.299 52.4565 257.715 67.2218L233.624 111.503C226.785 123.955 216.527 137.953 204.331 144.569L246.265 68.2565ZM198.832 167.593L185.895 191.686C180.54 201.454 174.149 199.442 180.54 187.926L198.087 156.069L199.425 155.929C201.953 157.302 201.953 161.469 198.832 167.593ZM28.5506 201.065C25.2786 207.201 20.0746 206.846 20.0746 202.679C20.0746 198.665 23.6426 193.683 35.5373 187.847L35.4586 187.994L56.3333 179.35C67.5933 174.118 78.752 165.878 90.3226 153.651C90.1626 173.501 117.655 174.575 134.435 151.626L137.856 151.271C142.685 150.774 148.98 148.561 155.016 145.114C151.587 155.225 156.469 162.885 167.452 161.753C173.757 161.103 180.535 157.073 187.317 151.217L168.051 186.681C156.153 208.582 179.945 222.637 196.452 191.927L208.051 170.363C211.171 164.534 211.321 158.722 209.833 154.559C225 152.106 245.521 145.529 263.067 123.339C262.029 121.366 259.353 119.258 257.272 118.579L256.227 119.879C240.912 139.158 224.109 145.502 211.769 147.666C222.324 141.074 235.112 130.982 242.993 116.634L267.827 71.0885C285.672 38.3112 252.212 31.7965 231.991 68.9818L201.941 124.297L200.909 125.582C189.756 139.673 178.901 151.053 172.061 151.759C168.641 152.114 166.708 149.929 170.276 143.465L243.992 0.396484L231.665 1.98848L163.593 128.393L162.688 129.526C155.697 137.827 147.075 142.439 139.341 143.383L153.915 116.746C163.281 99.5658 154.656 85.1352 140.085 86.6378C128.189 87.8632 118.969 93.5738 110.049 109.962L102.465 123.983L96.18 135.393L95.3146 136.47C82.528 152.511 71.672 163.15 59.48 169.614L79.108 133.978L63.6413 135.573L62.008 138.421C53.8293 153.69 44.46 164.917 32.416 166.158C21.8573 167.246 19.9253 156.889 29.1466 140.169L31.572 135.653C28.952 135.377 24.9506 134.425 18.868 132.099L15.7626 137.827C4.90798 157.691 6.84266 178.313 28.6986 176.058C35.24 175.383 40.7453 172.883 45.5 169.419L41.4866 176.823C20.52 185.382 7.58398 195.193 7.58398 206.791C7.58398 221.67 30.3346 222.45 41.4866 202.258L50.964 185.045L32.7133 193.189L28.5506 201.065Z"></path>
<path fill="#264133" d="M161.401 268.949L173.146 247.361L180.582 233.949C191.437 214.393 206.306 220.146 196.938 237.174L185.641 257.674L184.896 257.753C179.838 258.276 175.824 262.856 175.824 267.912C175.824 269.842 176.42 271.566 177.309 272.964L177.161 273.276C169.876 286.52 152.181 285.965 161.401 268.949ZM246.758 228.62C255.081 213.336 271.589 215.348 264.005 230.11L264.156 230.094L252.405 251.534C243.038 267.822 233.524 276.088 226.982 276.766C223.561 277.118 221.628 274.937 225.194 268.469L246.758 228.62ZM87.5982 318.264L83.4715 326.069C80.1995 332.205 74.9982 331.85 74.9982 327.684C74.9982 323.665 78.5635 318.688 90.4595 312.852L90.3329 313.09L108.69 305.488C120.822 300.345 132.794 291.797 145.244 278.642C145.072 298.508 172.572 299.585 189.354 276.63L192.776 276.276C197.605 275.778 203.9 273.566 209.934 270.12C206.508 280.229 211.388 287.892 222.373 286.753C228.617 286.114 236.348 281.304 243.784 274.438C244.526 280.309 249.284 283.984 257.162 283.172C269.956 281.85 284.677 266.652 297.462 250.458C297.461 250.454 297.458 250.452 297.457 250.449C297.462 250.452 297.468 250.456 297.472 250.458C306.25 239.441 313.977 227.785 319.482 219.932C313.385 236.621 316.656 265.141 301.937 266.656C296.733 267.193 294.652 261.756 294.652 261.756L284.982 267.81C284.982 267.81 287.812 280.013 301.937 278.553C303.424 278.401 304.76 278.117 306.25 277.812C306.394 277.797 306.544 277.637 306.694 277.617C322.458 273.912 338.07 259.809 349.666 245.074C348.776 242.792 346.101 240.686 343.866 240.324L342.828 241.618C337.177 248.893 330.337 255.549 324.24 260.344C329.148 245.109 328.104 222.612 337.62 201.842L326.022 196.794C319.63 206.228 305.649 227.902 291.676 245.702L291.678 245.708C291.676 245.706 291.672 245.704 291.668 245.702L290.622 247.002C279.473 261.092 268.618 272.468 261.777 273.178C258.358 273.529 256.424 271.352 259.99 264.884L312.332 168.902L296.869 170.498L274.118 212.11C271.442 208.077 266.386 204.878 259.99 205.541C251.666 206.396 240.068 214.138 233.524 226.116L218.693 253.249C218.678 253.245 218.662 253.237 218.648 253.232L217.609 254.526C210.618 262.832 201.996 267.442 194.264 268.388L208.836 241.75C218.205 224.57 209.58 210.14 195.005 211.642C183.11 212.872 173.89 218.578 164.969 234.966L157.384 248.988L151.096 260.406L150.238 261.474C137.449 277.516 126.592 288.154 114.401 294.618L134.029 258.982L118.564 260.573L116.93 263.421C108.75 278.694 99.3835 289.921 87.3395 291.161C76.7809 292.246 74.8462 281.893 84.0662 265.173L86.4249 260.781C83.7742 260.472 79.7689 259.492 73.7475 257.177L70.6835 262.832C59.8289 282.697 61.7622 303.317 83.6209 301.062C90.1609 300.388 95.6622 297.888 100.421 294.422L96.4089 301.828C75.4409 310.386 62.5049 320.201 62.5049 331.796C62.5049 346.67 85.2582 347.45 96.4089 327.262L105.852 310.113L87.5982 318.264Z"></path>
</g>
<defs>
<clipPath id="clip0_1362_2">
<rect fill="white" height="361" width="350"></rect>
</clipPath>
</defs>
</svg>
